<svg width="96" height="96" viewBox="0 0 96 96" fill="none" xmlns="http://www.w3.org/2000/svg">
<path d="M2 48C0.895429 48 -0.00435146 48.8959 0.0416515 49.9995C0.408159 58.7921 3.18611 67.329 8.08946 74.6674C13.3638 82.5609 20.8603 88.7132 29.6312 92.3462C38.402 95.9792 48.0532 96.9298 57.3643 95.0777C66.6754 93.2256 75.2282 88.654 81.9411 81.9411C88.654 75.2282 93.2256 66.6754 95.0777 57.3643C96.9298 48.0532 95.9792 38.402 92.3462 29.6312C88.7132 20.8603 82.5609 13.3638 74.6674 8.08946C66.7738 2.81515 57.4935 -2.51312e-06 48 -2.09815e-06L48 28.8C51.7974 28.8 55.5095 29.9261 58.6669 32.0358C61.8244 34.1455 64.2853 37.1441 65.7385 40.6525C67.1917 44.1608 67.5719 48.0213 66.8311 51.7457C66.0902 55.4702 64.2616 58.8913 61.5764 61.5764C58.8913 64.2616 55.4702 66.0902 51.7457 66.8311C48.0213 67.5719 44.1608 67.1917 40.6525 65.7385C37.1441 64.2853 34.1455 61.8244 32.0358 58.6669C30.2977 56.0658 29.2273 53.0881 28.9041 49.9964C28.7892 48.8979 27.9046 48 26.8 48L2 48Z" fill="#E01F4F"/>
</svg>
