<svg width="32" height="32" viewBox="0 0 32 32" fill="none" xmlns="http://www.w3.org/2000/svg">
<path d="M7.10135 4.27132C7.93342 3.97448 8.83265 3.91993 9.69449 4.11399C10.5563 4.30805 11.3454 4.74276 11.9699 5.36757C12.5945 5.99239 13.0288 6.78165 13.2225 7.64358C13.4162 8.50552 13.3612 9.40472 13.064 10.2367L27.524 24.6967L24.6947 27.5247L10.2347 13.066C9.40262 13.3628 8.50339 13.4174 7.64154 13.2233C6.7797 13.0293 5.99064 12.5945 5.3661 11.9697C4.74156 11.3449 4.30721 10.5557 4.11353 9.69372C3.91985 8.83179 3.97481 7.93258 4.27202 7.10065L7.25335 10.0833C7.43785 10.2743 7.65854 10.4267 7.90254 10.5315C8.14655 10.6363 8.40899 10.6915 8.67455 10.6938C8.94011 10.6961 9.20347 10.6455 9.44926 10.545C9.69505 10.4444 9.91836 10.2959 10.1061 10.1081C10.2939 9.92032 10.4424 9.69702 10.543 9.45123C10.6436 9.20543 10.6942 8.94207 10.6919 8.67652C10.6895 8.41096 10.6344 8.14852 10.5296 7.90451C10.4247 7.6605 10.2724 7.43981 10.0814 7.25532L7.10002 4.26999L7.10135 4.27132ZM20.924 6.78332L25.1667 4.42599L27.052 6.31132L24.6947 10.554L22.3374 11.026L19.5107 13.854L17.624 11.9687L20.452 9.14065L20.924 6.78332V6.78332ZM11.496 17.154L14.324 19.9833L7.72402 26.5833C7.36007 26.9439 6.87164 27.151 6.35946 27.162C5.84728 27.173 5.3504 26.9871 4.97129 26.6425C4.59218 26.2979 4.35975 25.821 4.32193 25.3101C4.28411 24.7992 4.44378 24.2933 4.76802 23.8966L4.89735 23.754L11.4974 17.154H11.496Z" fill="#E01F4F"/>
</svg>
