<svg width="150" height="40" viewBox="0 0 150 40" fill="none" xmlns="http://www.w3.org/2000/svg">
<path d="M3.10135 8.50911C3.93342 8.21228 4.83265 8.15772 5.69449 8.35178C6.55634 8.54584 7.3454 8.98055 7.96994 9.60537C8.59448 10.2302 9.02883 11.0194 9.22251 11.8814C9.41619 12.7433 9.36123 13.6425 9.06402 14.4744L23.524 28.9344L20.6947 31.7624L6.23469 17.3038C5.40262 17.6006 4.50339 17.6552 3.64154 17.4611C2.7797 17.267 1.99064 16.8323 1.3661 16.2075C0.741561 15.5827 0.307205 14.7935 0.113529 13.9315C-0.0801472 13.0696 -0.0251871 12.1704 0.27202 11.3384L3.25335 14.3211C3.43785 14.5121 3.65854 14.6645 3.90254 14.7693C4.14655 14.8741 4.40899 14.9293 4.67455 14.9316C4.94011 14.9339 5.20347 14.8833 5.44926 14.7828C5.69505 14.6822 5.91836 14.5337 6.10614 14.3459C6.29393 14.1581 6.44243 13.9348 6.543 13.689C6.64356 13.4432 6.69416 13.1799 6.69185 12.9143C6.68955 12.6487 6.63437 12.3863 6.52956 12.1423C6.42474 11.8983 6.27237 11.6776 6.08135 11.4931L3.10002 8.50778L3.10135 8.50911ZM16.924 11.0211L21.1667 8.66378L23.052 10.5491L20.6947 14.7918L18.3374 15.2638L15.5107 18.0918L13.624 16.2064L16.452 13.3784L16.924 11.0211ZM7.49602 21.3918L10.324 24.2211L3.72402 30.8211C3.36007 31.1817 2.87164 31.3888 2.35946 31.3998C1.84728 31.4108 1.3504 31.2249 0.971291 30.8803C0.592181 30.5357 0.359749 30.0588 0.321928 29.5479C0.284107 29.037 0.44378 28.5311 0.76802 28.1344L0.897353 27.9918L7.49735 21.3918H7.49602Z" fill="#E01F4F"/>
<path d="M40.815 29L35.8658 15.3145H39.1881L42.0728 24.1875L45.2721 15.3145H47.7877L51.0143 24.1875L53.8853 15.3145H57.2213L52.2721 29H49.7701L46.5299 20.127L43.276 29H40.815ZM68.296 15.3145H71.4132V29H68.296V27.1543C67.9315 27.7741 67.339 28.2845 66.5187 28.6855C65.7075 29.0775 64.8462 29.2734 63.9347 29.2734C62.0936 29.2734 60.535 28.5853 59.2589 27.209C57.992 25.8327 57.3585 24.1419 57.3585 22.1367C57.3585 20.1497 57.992 18.4681 59.2589 17.0918C60.535 15.7155 62.0936 15.0273 63.9347 15.0273C64.8371 15.0273 65.6984 15.2279 66.5187 15.6289C67.339 16.0299 67.9315 16.5404 68.296 17.1602V15.3145ZM64.5773 26.3066C65.3429 26.3066 66.0675 26.1152 66.7511 25.7324C67.4438 25.3496 67.9588 24.862 68.296 24.2695V20.0723C67.9588 19.4616 67.4484 18.9648 66.7648 18.582C66.0812 18.1901 65.352 17.9941 64.5773 17.9941C63.4015 17.9941 62.4171 18.3906 61.6242 19.1836C60.8312 19.9674 60.4347 20.9518 60.4347 22.1367C60.4347 23.3216 60.8312 24.3151 61.6242 25.1172C62.4171 25.9102 63.4015 26.3066 64.5773 26.3066ZM83.5271 15.3145H86.8903L79.1521 33.8125H75.8025L78.2634 28.2754L72.8357 15.3145H76.1853L79.863 24.6387L83.5271 15.3145ZM91.9632 29L87.0139 15.3145H90.3362L93.221 24.1875L96.4202 15.3145H98.9358L102.162 24.1875L105.033 15.3145H108.369L103.42 29H100.918L97.678 20.127L94.4241 29H91.9632ZM119.444 15.3145H122.561V29H119.444V27.1543C119.08 27.7741 118.487 28.2845 117.667 28.6855C116.856 29.0775 115.994 29.2734 115.083 29.2734C113.242 29.2734 111.683 28.5853 110.407 27.209C109.14 25.8327 108.507 24.1419 108.507 22.1367C108.507 20.1497 109.14 18.4681 110.407 17.0918C111.683 15.7155 113.242 15.0273 115.083 15.0273C115.985 15.0273 116.847 15.2279 117.667 15.6289C118.487 16.0299 119.08 16.5404 119.444 17.1602V15.3145ZM115.725 26.3066C116.491 26.3066 117.216 26.1152 117.899 25.7324C118.592 25.3496 119.107 24.862 119.444 24.2695V20.0723C119.107 19.4616 118.597 18.9648 117.913 18.582C117.229 18.1901 116.5 17.9941 115.725 17.9941C114.55 17.9941 113.565 18.3906 112.772 19.1836C111.979 19.9674 111.583 20.9518 111.583 22.1367C111.583 23.3216 111.979 24.3151 112.772 25.1172C113.565 25.9102 114.55 26.3066 115.725 26.3066ZM131.9 15.0273C132.529 15.0273 133.053 15.1003 133.472 15.2461L133.281 18.1855C132.752 18.0033 132.21 17.9121 131.654 17.9121C131.089 17.9121 130.492 18.1263 129.863 18.5547C129.234 18.974 128.746 19.5436 128.4 20.2637V29H125.296V15.3145H128.4V17.1875C128.737 16.5495 129.243 16.0299 129.917 15.6289C130.592 15.2279 131.253 15.0273 131.9 15.0273ZM144.328 9.39453H147.445V29H144.328V27.1543C143.963 27.7741 143.371 28.2845 142.551 28.6855C141.74 29.0775 140.878 29.2734 139.967 29.2734C138.126 29.2734 136.567 28.5853 135.291 27.209C134.024 25.8327 133.391 24.1419 133.391 22.1367C133.391 20.1497 134.024 18.4681 135.291 17.0918C136.567 15.7155 138.126 15.0273 139.967 15.0273C140.869 15.0273 141.73 15.2279 142.551 15.6289C143.371 16.0299 143.963 16.5404 144.328 17.1602V9.39453ZM140.609 26.3066C141.375 26.3066 142.1 26.1152 142.783 25.7324C143.476 25.3496 143.991 24.862 144.328 24.2695V20.0723C143.991 19.4616 143.48 18.9648 142.797 18.582C142.113 18.1901 141.384 17.9941 140.609 17.9941C139.434 17.9941 138.449 18.3906 137.656 19.1836C136.863 19.9674 136.467 20.9518 136.467 22.1367C136.467 23.3216 136.863 24.3151 137.656 25.1172C138.449 25.9102 139.434 26.3066 140.609 26.3066Z" fill="white"/>
</svg>
