<svg xmlns="http://www.w3.org/2000/svg" id="Layer_1" data-name="Layer 1" viewBox="115.14 247.72 967.6 93.96"><defs><style>.cls-1{fill:#231f20;}.cls-2{fill:#e31c25;}</style></defs><title>SVG</title><path class="cls-1" d="M356.33,278a4,4,0,0,0-2.83-1.18,4,4,0,0,0-2.76,1.09L327.17,300.3l-23.59-22.38a4,4,0,0,0-2.76-1.09h-.22a4,4,0,0,0-4,4v29.83a2.39,2.39,0,0,0,2.4,2.4h1a2.41,2.41,0,0,0,2.4-2.4V284.45l20.74,19.75a5.79,5.79,0,0,0,4,1.58h0a5.78,5.78,0,0,0,4-1.58l20.63-19.63v26.1a2.4,2.4,0,0,0,2.41,2.4h1a2.4,2.4,0,0,0,2.4-2.4V280.84A3.94,3.94,0,0,0,356.33,278Z"/><path class="cls-1" d="M418.49,288.21V287a10.13,10.13,0,0,0-9.78-10.17H371.92a3.6,3.6,0,0,0-3.6,3.6v29.64a3,3,0,0,0,.88,2.12,3,3,0,0,0,2.11.88,3,3,0,0,0,3-3V299h27.27l9.83,13a2.89,2.89,0,0,0,4.61-3.47l-7.09-9.5C414.54,298.62,418.49,294.22,418.49,288.21Zm-5.89-.11a5.07,5.07,0,0,1-5.08,5.32H374.31v-11.1h33.21a5.22,5.22,0,0,1,5.08,5.31Z"/><path class="cls-1" d="M619.73,288.21V287A10.13,10.13,0,0,0,610,276.83H573.16a3.6,3.6,0,0,0-3.6,3.6v29.64a3,3,0,1,0,6,0V299h27.27l9.83,13a2.89,2.89,0,0,0,4.61-3.47l-7.1-9.5C615.78,298.62,619.73,294.22,619.73,288.21Zm-5.89-.11a5.07,5.07,0,0,1-5.08,5.32H575.55v-11.1h33.21a5.22,5.22,0,0,1,5.08,5.31Z"/><path class="cls-1" d="M501.4,307.52H472.66c-4.05,0-7-2.66-7-7.34V289.77c0-4,2-7.45,7.39-7.45H501.4a2.81,2.81,0,0,0,2-.81,2.74,2.74,0,0,0-2-4.68H471.47c-6.91,0-11.71,4.5-11.71,11.79v12.95c0,7.1,5.12,11.5,11.82,11.5H501.4a2.75,2.75,0,0,0,2.75-2.75v-.06A2.75,2.75,0,0,0,501.4,307.52Z"/><path class="cls-1" d="M535.12,276.83h0a4.55,4.55,0,0,0-3.8,2.05L511.7,308.59a2.88,2.88,0,0,0,2.4,4.48h0a2.87,2.87,0,0,0,2.4-1.3l4.23-6.44,3.62-5.56,10.74-16.53,10.81,16.53,3.62,5.56,4.17,6.43a2.85,2.85,0,0,0,2.4,1.31h0a2.87,2.87,0,0,0,2.4-4.44l-19.56-29.74A4.54,4.54,0,0,0,535.12,276.83Z"/><path class="cls-1" d="M847.28,276.83h0a4.56,4.56,0,0,0-3.8,2.05l-19.62,29.71a2.89,2.89,0,0,0,2.41,4.48h0a2.86,2.86,0,0,0,2.39-1.3l4.23-6.44,3.63-5.56,10.74-16.53,10.8,16.53,3.62,5.56,4.17,6.43a2.87,2.87,0,0,0,2.41,1.31h0a2.87,2.87,0,0,0,2.39-4.44l-19.56-29.74A4.54,4.54,0,0,0,847.28,276.83Z"/><path class="cls-1" d="M699.89,276.83H665.08a3.6,3.6,0,0,0-3.6,3.6v29a3.6,3.6,0,0,0,3.6,3.6h34.64c6.86,0,11.83-4.34,11.83-11.5V288.62C711.55,281.22,706.58,276.83,699.89,276.83Zm5.72,23.35c0,4.8-2.22,7.34-7,7.34H667.48v-25.2h30.83c5,0,7.3,2.83,7.3,7.45Z"/><rect class="cls-1" x="721.75" y="307.52" width="47.31" height="5.55" rx="2.74"/><path class="cls-1" d="M769.07,279.58a2.75,2.75,0,0,1-2.75,2.74H724.5a2.74,2.74,0,0,1-2.74-2.63v-.11a2.73,2.73,0,0,1,2.74-2.74h41.82a2.74,2.74,0,0,1,1.95.8A2.7,2.7,0,0,1,769.07,279.58Z"/><path class="cls-1" d="M769.07,294.63a2.74,2.74,0,0,1-2.75,2.74H724.5a2.73,2.73,0,0,1-2.74-2.74,1.62,1.62,0,0,1,0-.22,2.74,2.74,0,0,1,2.73-2.52h41.82a2.73,2.73,0,0,1,2.75,2.74Z"/><path class="cls-1" d="M776.15,279.57h0a2.75,2.75,0,0,0,2.74,2.75h19v28a2.75,2.75,0,0,0,2.74,2.75h.52a2.75,2.75,0,0,0,2.74-2.75v-28h18.86a2.74,2.74,0,0,0,2.74-2.75h0a2.74,2.74,0,0,0-2.74-2.74H778.89A2.74,2.74,0,0,0,776.15,279.57Z"/><path class="cls-1" d="M881.84,279.82v30.26a3,3,0,0,0,3,3h0a3,3,0,0,0,3-3V279.82a3,3,0,0,0-3-3h0A3,3,0,0,0,881.84,279.82Z"/><path class="cls-1" d="M721.77,294.41h0v15.77a3,3,0,0,0,3,2.9h0a3,3,0,0,0,3-3V291.89H724.5A2.74,2.74,0,0,0,721.77,294.41Zm3-17.57h0a3,3,0,0,0-3,2.85,2.74,2.74,0,0,0,2.74,2.63h3.26v-2.5A3,3,0,0,0,724.77,276.84Z"/><path class="cls-1" d="M904.74,307.52v-27.7a3,3,0,0,0-3-3h0a3,3,0,0,0-3,3v33.25h44.54a2.78,2.78,0,0,0,2.78-2.78h0a2.78,2.78,0,0,0-2.78-2.77Z"/><path class="cls-1" d="M955.14,279.83v30.24a3,3,0,0,0,3,3h0a3,3,0,0,0,3-3V279.83a3,3,0,0,0-3-3h0A3,3,0,0,0,955.14,279.83Z"/><path class="cls-1" d="M1017,279.69v26.5l-38-28.5a4.28,4.28,0,0,0-2.58-.86h-.06a4.29,4.29,0,0,0-4.29,4.3V310.2a2.87,2.87,0,0,0,2.86,2.87H975a2.87,2.87,0,0,0,2.86-2.87V283.71l38,28.5a4.28,4.28,0,0,0,2.58.86h0a4.3,4.3,0,0,0,4.29-4.3V279.69a2.86,2.86,0,0,0-2.86-2.86h0A2.86,2.86,0,0,0,1017,279.69Z"/><path class="cls-1" d="M1076.55,295.75v11.77h-30.67c-4.06,0-7-2.66-7-7.34V289.77c0-4,2-7.45,7.41-7.45h32.47a2.74,2.74,0,0,0,2.74-2.75h0a2.74,2.74,0,0,0-2.74-2.74h-34.09c-6.91,0-11.73,4.5-11.73,11.79v12.95c0,7.1,5.14,11.5,11.84,11.5H1080a2.75,2.75,0,0,0,2.74-2.75V295.75A2.74,2.74,0,0,0,1080,293h-.67A2.75,2.75,0,0,0,1076.55,295.75Z"/><polyline class="cls-1" points="721.76 294.4 721.77 294.41 727.71 297.37 727.76 297.4"/><path class="cls-1" d="M270.45,338.64a2.73,2.73,0,0,1-.14.9v0a3.05,3.05,0,0,1-5.86-.14s0,0,0,0a2.73,2.73,0,0,1-.1-.76,2.45,2.45,0,0,1,.05-.55,3,3,0,0,1,6-.12A2.46,2.46,0,0,1,270.45,338.64Z"/><path class="cls-1" d="M270.38,252.2v85.5a2.53,2.53,0,0,1,0,.27c0,.54,0,1.07-.06,1.57v0a3.05,3.05,0,0,1-5.86-.14s0,0,0,0c0-.42-.05-.86-.05-1.31,0-.13,0-.26,0-.39V252.2c0-.3,0-.6,0-.89q0-.83.12-1.59a3,3,0,0,1,2.87-2,3.06,3.06,0,0,1,2.85,1.95c.06.58.11,1.19.13,1.83C270.38,251.7,270.38,252,270.38,252.2Z"/><path class="cls-1" d="M264.39,250.19a2.52,2.52,0,0,1,.13-.47q-.09.76-.12,1.59a2.21,2.21,0,0,1-.06-.57A2.56,2.56,0,0,1,264.39,250.19Z"/><path class="cls-1" d="M270.45,250.74a2.84,2.84,0,0,1-.08.72c0-.64-.07-1.25-.13-1.83a2.44,2.44,0,0,1,.13.44A2.56,2.56,0,0,1,270.45,250.74Z"/><polygon class="cls-2" points="164.65 296.73 164.65 296.74 179.55 322.02 167.62 322.02 158.69 306.85 149.75 322.02 137.84 322.02 152.74 296.74 147.34 287.58 127.06 322.02 115.14 322.02 141.38 277.47 147.34 267.36 153.29 277.47 158.69 286.62 164.08 277.47 169.76 267.84 170.05 267.36 170.33 267.83 170.34 267.83 176.01 277.47 176.36 278.08 183.16 289.62 189.19 299.86 199.35 317.11 202.24 322.02 190.33 322.02 177.3 299.91 171.28 289.67 170.05 287.58 164.65 296.73"/><polygon class="cls-2" points="228.83 267.57 192.33 267.74 192.1 267.35 191.88 267.74 180.46 267.79 186.15 277.46 186.14 277.47 186.47 278.03 186.49 278.03 197.76 277.98 198.36 277.98 222.71 277.87 215.8 289.47 205.16 289.52 193.28 289.57 199.31 299.81 204.45 308.54 210.4 318.63 212.39 322.02 224.31 322.02 216.38 308.57 211.19 299.75 221.65 299.71 227.78 289.41 234.68 277.81 240.81 267.52 228.83 267.57"/></svg>