<svg xmlns="http://www.w3.org/2000/svg" xmlns:xlink="http://www.w3.org/1999/xlink" version="1.1" id="Layer_1" x="0px" y="0px" style="enable-background:new 0 0 1211.37 517.71;" xml:space="preserve" viewBox="121.9 211.84 967.56 94.01">
<g>
	<path d="M363.09,242.18c-0.72-0.73-1.73-1.18-2.83-1.18c-1.03,0-2.02,0.38-2.76,1.09l-23.57,22.37l-23.58-22.37   c-0.74-0.71-1.73-1.09-2.76-1.09h-0.22c-2.21,0-4.01,1.79-4.01,4.01v29.83c0,1.32,1.07,2.4,2.4,2.4h1.03c1.32,0,2.4-1.08,2.4-2.4   v-26.21l20.74,19.74c1.07,1.02,2.49,1.59,3.96,1.59l0,0c1.48,0,2.89-0.57,3.96-1.58l20.64-19.62v26.09c0,1.32,1.07,2.4,2.4,2.4   h0.97c1.33,0,2.4-1.08,2.4-2.4v-29.83C364.27,243.89,363.82,242.9,363.09,242.18z"/>
	<path d="M425.25,252.38v-1.21c0-5.55-4.54-10.17-9.78-10.17h-36.79c-1.99,0-3.6,1.61-3.6,3.6v29.63c0,0.83,0.34,1.58,0.88,2.12   c0.54,0.54,1.28,0.88,2.11,0.88c1.66,0,3-1.34,3-3v-11.1h27.27l9.83,12.96c0.55,0.72,1.4,1.14,2.3,1.14c2.38,0,3.73-2.7,2.3-4.61   l-7.09-9.49C421.3,262.78,425.25,258.39,425.25,252.38z M419.36,252.27c0,2.71-1.84,5.32-5.08,5.32h-33.21v-11.1h33.21   c2.65,0,5.08,2.26,5.08,5.32V252.27z"/>
	<path d="M626.49,252.38v-1.21c0-5.55-4.54-10.17-9.78-10.17h-36.79c-1.99,0-3.6,1.61-3.6,3.6v29.63c0,0.83,0.34,1.58,0.88,2.12   c0.54,0.54,1.28,0.88,2.11,0.88c1.66,0,3-1.34,3-3v-11.1h27.27l9.83,12.96c0.55,0.72,1.4,1.14,2.3,1.14c2.38,0,3.73-2.7,2.3-4.61   l-7.09-9.49C622.54,262.78,626.49,258.39,626.49,252.38z M620.59,252.27c0,2.71-1.84,5.32-5.08,5.32h-33.21v-11.1h33.21   c2.65,0,5.08,2.26,5.08,5.32V252.27z"/>
	<path d="M508.16,271.69h-28.75c-4.04,0-6.96-2.66-6.96-7.35v-10.41c0-4.04,1.99-7.45,7.39-7.45h28.31c0.76,0,1.44-0.31,1.94-0.8   c0.49-0.49,0.8-1.19,0.8-1.94c0-1.51-1.24-2.74-2.75-2.74h-29.93c-6.91,0-11.71,4.5-11.71,11.79v12.95c0,7.11,5.13,11.5,11.82,11.5   h29.83c1.51,0,2.75-1.22,2.75-2.75v-0.06C510.91,272.91,509.67,271.69,508.16,271.69z"/>
	<path d="M541.88,241L541.88,241c-1.53,0-2.96,0.77-3.8,2.05l-19.62,29.71c-1.27,1.92,0.11,4.48,2.41,4.48l0,0   c0.96,0,1.86-0.49,2.39-1.29l4.23-6.45l3.62-5.56l10.74-16.53l10.8,16.53l3.62,5.56l4.17,6.44c0.53,0.81,1.43,1.31,2.4,1.31h0   c2.28,0,3.64-2.53,2.39-4.44l-19.56-29.75C544.84,241.77,543.41,241,541.88,241z"/>
	<path d="M854.04,241L854.04,241c-1.53,0-2.96,0.77-3.8,2.05l-19.62,29.71c-1.27,1.92,0.11,4.48,2.41,4.48h0   c0.96,0,1.86-0.49,2.39-1.29l4.23-6.45l3.62-5.56l10.74-16.53l10.8,16.53l3.62,5.56l4.17,6.44c0.53,0.81,1.43,1.31,2.4,1.31l0,0   c2.28,0,3.64-2.53,2.39-4.44l-19.56-29.75C857.01,241.77,855.58,241,854.04,241z"/>
	<path d="M706.64,241h-34.81c-1.99,0-3.6,1.61-3.6,3.6v29.03c0,1.99,1.61,3.6,3.6,3.6h34.64c6.87,0,11.83-4.33,11.83-11.5v-12.95   C718.31,245.39,713.34,241,706.64,241z M712.37,264.34c0,4.8-2.22,7.35-6.97,7.35h-31.16v-25.2h30.83c5.03,0,7.3,2.83,7.3,7.45   V264.34z"/>
	<path d="M728.51,274.43v0.06c0,1.51,1.23,2.74,2.74,2.74h41.83c1.51,0,2.74-1.23,2.74-2.74v-0.06c0-1.51-1.23-2.74-2.74-2.74   h-41.83C729.74,271.69,728.51,272.92,728.51,274.43z"/>
	<path d="M775.83,243.74c0,1.51-1.23,2.74-2.75,2.74h-41.82c-1.48,0-2.68-1.17-2.73-2.63c-0.01-0.03-0.01-0.08-0.01-0.11   c0-1.51,1.23-2.74,2.74-2.74h41.82c0.77,0,1.44,0.3,1.95,0.8C775.52,242.3,775.83,242.99,775.83,243.74z"/>
	<path d="M775.83,258.8c0,1.51-1.23,2.74-2.75,2.74h-41.82c-1.51,0-2.74-1.23-2.74-2.74c0-0.08,0-0.16,0.02-0.23   c0.1-1.41,1.29-2.52,2.72-2.52h41.82c0.77,0,1.44,0.3,1.95,0.81C775.52,257.36,775.83,258.05,775.83,258.8z"/>
	<path d="M782.91,243.74L782.91,243.74c0,1.51,1.23,2.74,2.74,2.74h19.02v28.01c0,1.51,1.23,2.74,2.74,2.74h0.52   c1.51,0,2.74-1.23,2.74-2.74v-28.01h18.86c1.51,0,2.74-1.23,2.74-2.74l0,0c0-1.51-1.23-2.74-2.74-2.74h-43.88   C784.13,241,782.91,242.23,782.91,243.74z"/>
	<path d="M888.6,243.99v30.26c0,1.65,1.34,2.99,2.99,2.99h0.02c1.65,0,2.99-1.34,2.99-2.99v-30.26c0-1.65-1.34-2.99-2.99-2.99h-0.02   C889.94,241,888.6,242.34,888.6,243.99z"/>
	<path d="M728.53,258.58l-0.02-0.01v15.68c0,0.03,0,0.06,0.01,0.1c0.04,1.61,1.37,2.9,2.97,2.9h0.03c1.65,0,2.99-1.34,2.99-2.99   v-18.19h-3.26C729.82,256.05,728.64,257.17,728.53,258.58z M731.52,241h-0.03c-1.6,0-2.91,1.26-2.97,2.85   c0.05,1.46,1.25,2.63,2.73,2.63h3.26v-2.5C734.52,242.33,733.18,241,731.52,241z"/>
	<path d="M911.5,271.69v-27.7c0-1.65-1.34-2.99-2.99-2.99h-0.01c-1.65,0-2.99,1.34-2.99,2.99v33.25h44.54   c1.53,0,2.77-1.24,2.77-2.77l0,0c0-1.53-1.24-2.77-2.77-2.77H911.5z"/>
	<path d="M961.9,243.99v30.25c0,1.65,1.34,2.99,2.99,2.99l0,0c1.65,0,2.99-1.34,2.99-2.99v-30.25c0-1.65-1.34-2.99-2.99-2.99l0,0   C963.24,241,961.9,242.34,961.9,243.99z"/>
	<path d="M1023.73,243.86v26.5l-38.01-28.5c-0.74-0.56-1.65-0.86-2.58-0.86h-0.06c-2.37,0-4.29,1.92-4.29,4.29v29.08   c0,1.58,1.28,2.86,2.86,2.86h0.06c1.58,0,2.86-1.28,2.86-2.86v-26.5l38.01,28.5c0.74,0.56,1.65,0.86,2.58,0.86l0,0   c2.37,0,4.29-1.92,4.29-4.29v-29.08c0-1.58-1.28-2.86-2.86-2.86l0,0C1025.01,241,1023.73,242.28,1023.73,243.86z"/>
	<path d="M1083.31,259.92v11.77h-30.68c-4.06,0-6.97-2.66-6.97-7.35v-10.41c0-4.04,2-7.45,7.41-7.45h32.47   c1.51,0,2.74-1.23,2.74-2.74l0,0c0-1.51-1.23-2.74-2.74-2.74h-34.09c-6.91,0-11.73,4.5-11.73,11.79v12.95   c0,7.11,5.14,11.5,11.83,11.5h35.17c1.51,0,2.74-1.23,2.74-2.74v-14.57c0-1.51-1.23-2.74-2.74-2.74h-0.67   C1084.54,257.18,1083.31,258.41,1083.31,259.92z"/>
	<polyline points="728.51,258.57 728.53,258.58 734.46,261.54 734.52,261.57  "/>
	<path d="M277.21,302.8c0,0.31-0.04,0.62-0.14,0.9c0,0.01-0.01,0.02-0.01,0.02c-0.39,1.24-1.55,2.13-2.91,2.13   c-1.42,0-2.6-0.97-2.95-2.27c-0.01,0-0.01-0.01,0-0.02c-0.07-0.24-0.1-0.5-0.1-0.77c0-0.18,0.02-0.37,0.05-0.55   c0.25-1.43,1.5-2.51,3-2.51c1.46,0,2.68,1.03,2.98,2.39C277.18,302.35,277.21,302.58,277.21,302.8z"/>
	<path d="M277.14,216.37v85.49c0,0.09,0,0.18-0.01,0.27c0,0.54-0.03,1.07-0.06,1.57c0,0.01-0.01,0.02-0.01,0.02   c-0.39,1.24-1.55,2.13-2.91,2.13c-1.42,0-2.6-0.97-2.95-2.27c-0.01,0-0.01-0.01,0-0.02c-0.03-0.43-0.05-0.86-0.05-1.31   c-0.01-0.13-0.01-0.26-0.01-0.39v-85.49c0-0.3,0.01-0.6,0.02-0.9c0.02-0.55,0.06-1.08,0.12-1.59c0.41-1.18,1.54-2.04,2.87-2.04   c1.3,0,2.4,0.81,2.84,1.95c0.07,0.58,0.11,1.19,0.13,1.83C277.14,215.87,277.14,216.12,277.14,216.37z"/>
	<path d="M271.15,214.36c0.03-0.17,0.07-0.32,0.13-0.48c-0.06,0.51-0.1,1.04-0.12,1.59c-0.04-0.18-0.06-0.37-0.06-0.57   C271.1,214.73,271.11,214.54,271.15,214.36z"/>
	<path d="M277.21,214.91c0,0.24-0.03,0.49-0.09,0.71c-0.02-0.63-0.06-1.24-0.13-1.83c0.06,0.15,0.1,0.3,0.14,0.44   C277.18,214.46,277.21,214.68,277.21,214.91z"/>
</g>
<g>
	<polygon points="195.95,264.02 189.92,253.78 183.12,242.25 182.77,241.64 177.09,232 177.08,232 176.81,231.52 176.52,232.01    170.84,241.64 165.45,250.79 160.05,241.64 154.1,231.52 148.14,241.64 121.9,286.19 133.82,286.19 154.1,251.75 159.5,260.91    144.6,286.19 156.51,286.19 165.45,271.02 174.38,286.19 186.31,286.19 171.4,260.91 171.4,260.9 176.81,251.75 178.03,253.83    184.06,264.07 197.09,286.19 209,286.19 206.11,281.27  "/>
	<polygon points="235.59,231.74 199.09,231.9 198.86,231.52 198.63,231.91 187.22,231.96 192.91,241.62 192.9,241.64 193.23,242.2    193.25,242.2 204.52,242.14 205.12,242.14 229.46,242.03 222.56,253.63 211.92,253.68 200.04,253.74 206.06,263.97 211.21,272.7    217.15,282.79 219.15,286.18 231.06,286.18 223.14,272.73 217.95,263.92 228.41,263.87 234.54,253.58 241.44,241.98 247.57,231.68     "/>
</g>
</svg>