<svg xmlns="http://www.w3.org/2000/svg" id="Layer_1" data-name="Layer 1" viewBox="121.9 211.76 967.54 94.09"><defs><style>.cls-1{fill:silver;}</style></defs><title>Full logo</title><path class="cls-1" d="M363.09,242.18a4,4,0,0,0-5.59-.09l-23.58,22.37-23.58-22.37a4,4,0,0,0-2.76-1.09h-.22a4,4,0,0,0-4,4v29.82a2.4,2.4,0,0,0,2.4,2.4h1a2.41,2.41,0,0,0,2.4-2.4V248.62l20.74,19.74a5.75,5.75,0,0,0,4,1.59h0a5.78,5.78,0,0,0,4-1.58l20.63-19.63v26.09a2.4,2.4,0,0,0,2.4,2.4h1a2.4,2.4,0,0,0,2.4-2.4V245A3.94,3.94,0,0,0,363.09,242.18Z"/><path class="cls-1" d="M425.25,252.38v-1.21A10.13,10.13,0,0,0,415.47,241H378.68a3.6,3.6,0,0,0-3.6,3.6v29.63a3,3,0,0,0,.88,2.13,3,3,0,0,0,2.11.87,3,3,0,0,0,3-3v-11.1h27.27l9.83,13a2.88,2.88,0,0,0,4.61-3.46l-7.1-9.5C421.3,262.78,425.25,258.39,425.25,252.38Zm-5.89-.11a5.07,5.07,0,0,1-5.08,5.32H381.07V246.48h33.21a5.23,5.23,0,0,1,5.08,5.32Z"/><path class="cls-1" d="M626.49,252.38v-1.21A10.13,10.13,0,0,0,616.7,241H579.92a3.6,3.6,0,0,0-3.6,3.6v29.63a3,3,0,1,0,6,0v-11.1h27.27l9.83,13a2.88,2.88,0,0,0,4.6-3.46l-7.09-9.5C622.54,262.78,626.49,258.39,626.49,252.38Zm-5.9-.11a5.06,5.06,0,0,1-5.07,5.32H582.31V246.48h33.21a5.22,5.22,0,0,1,5.07,5.32Z"/><path class="cls-1" d="M508.16,271.69H479.42c-4.05,0-7-2.67-7-7.35v-10.4c0-4.05,2-7.46,7.39-7.46h28.31a2.8,2.8,0,0,0,1.95-.8,2.74,2.74,0,0,0-1.95-4.68H478.23c-6.92,0-11.72,4.5-11.72,11.79v13c0,7.1,5.13,11.49,11.83,11.49h29.82a2.75,2.75,0,0,0,2.75-2.74v-.06A2.75,2.75,0,0,0,508.16,271.69Z"/><path class="cls-1" d="M541.88,241h0a4.55,4.55,0,0,0-3.8,2.05l-19.63,29.71a2.88,2.88,0,0,0,2.41,4.47h0a2.86,2.86,0,0,0,2.4-1.29l4.23-6.45,3.62-5.55,10.74-16.53,10.8,16.53,3.63,5.55,4.17,6.44a2.87,2.87,0,0,0,2.4,1.3h0a2.86,2.86,0,0,0,2.39-4.43l-19.55-29.75A4.58,4.58,0,0,0,541.88,241Z"/><path class="cls-1" d="M854,241h0a4.55,4.55,0,0,0-3.8,2.05l-19.62,29.71a2.88,2.88,0,0,0,2.41,4.47h0a2.85,2.85,0,0,0,2.39-1.29l4.23-6.45,3.62-5.55L854,247.41l10.8,16.53,3.62,5.55,4.17,6.44a2.88,2.88,0,0,0,2.41,1.3h0a2.86,2.86,0,0,0,2.39-4.43l-19.56-29.75A4.55,4.55,0,0,0,854,241Z"/><path class="cls-1" d="M706.64,241h-34.8a3.6,3.6,0,0,0-3.6,3.6v29a3.6,3.6,0,0,0,3.6,3.6h34.64c6.86,0,11.83-4.33,11.83-11.49v-13C718.31,245.39,713.34,241,706.64,241Zm5.73,23.34c0,4.81-2.22,7.35-7,7.35H674.24V246.48h30.83c5,0,7.3,2.84,7.3,7.46Z"/><rect class="cls-1" x="728.51" y="271.69" width="47.31" height="5.55" rx="2.74"/><path class="cls-1" d="M775.83,243.74a2.74,2.74,0,0,1-2.75,2.74H731.25a2.73,2.73,0,0,1-2.73-2.62.49.49,0,0,1,0-.12,2.74,2.74,0,0,1,2.74-2.74h41.83a2.73,2.73,0,0,1,2.75,2.74Z"/><path class="cls-1" d="M775.83,258.8a2.74,2.74,0,0,1-2.75,2.74H731.25a2.74,2.74,0,0,1-2.74-2.74.78.78,0,0,1,0-.22,2.74,2.74,0,0,1,2.72-2.53h41.83a2.75,2.75,0,0,1,2.75,2.75Z"/><path class="cls-1" d="M782.91,243.74h0a2.73,2.73,0,0,0,2.74,2.74h19v28a2.73,2.73,0,0,0,2.74,2.74h.52a2.74,2.74,0,0,0,2.74-2.74v-28h18.86a2.74,2.74,0,0,0,2.74-2.74h0a2.74,2.74,0,0,0-2.74-2.74H785.65A2.74,2.74,0,0,0,782.91,243.74Z"/><path class="cls-1" d="M888.6,244v30.26a3,3,0,0,0,3,3h0a3,3,0,0,0,3-3V244a3,3,0,0,0-3-3h0A3,3,0,0,0,888.6,244Z"/><path class="cls-1" d="M728.53,258.58h0v15.67a.34.34,0,0,0,0,.1,3,3,0,0,0,3,2.9h0a3,3,0,0,0,3-3V256.05h-3.27A2.74,2.74,0,0,0,728.53,258.58Zm3-17.58h0a3,3,0,0,0-3,2.86,2.73,2.73,0,0,0,2.73,2.62h3.27V244A3,3,0,0,0,731.52,241Z"/><path class="cls-1" d="M911.5,271.69V244a3,3,0,0,0-3-3h0a3,3,0,0,0-3,3v33.24h44.54a2.77,2.77,0,0,0,2.77-2.77h0a2.77,2.77,0,0,0-2.77-2.77Z"/><path class="cls-1" d="M961.9,244v30.25a3,3,0,0,0,3,3h0a3,3,0,0,0,3-3V244a3,3,0,0,0-3-3h0A3,3,0,0,0,961.9,244Z"/><path class="cls-1" d="M1023.73,243.86v26.5l-38-28.5a4.3,4.3,0,0,0-2.58-.86h-.06a4.29,4.29,0,0,0-4.29,4.29v29.08a2.86,2.86,0,0,0,2.86,2.86h.06a2.86,2.86,0,0,0,2.86-2.86V247.88l38,28.5a4.33,4.33,0,0,0,2.57.85h0a4.29,4.29,0,0,0,4.3-4.29V243.86a2.86,2.86,0,0,0-2.86-2.86h0A2.86,2.86,0,0,0,1023.73,243.86Z"/><path class="cls-1" d="M1083.31,259.92v11.77h-30.68c-4.05,0-7-2.67-7-7.35v-10.4c0-4.05,2-7.46,7.41-7.46h32.47a2.74,2.74,0,0,0,2.74-2.74h0a2.74,2.74,0,0,0-2.74-2.74h-34.09c-6.92,0-11.73,4.5-11.73,11.79v13c0,7.1,5.14,11.49,11.83,11.49h35.18a2.74,2.74,0,0,0,2.74-2.74V259.92a2.74,2.74,0,0,0-2.74-2.74h-.67A2.75,2.75,0,0,0,1083.31,259.92Z"/><polyline class="cls-1" points="728.51 258.57 728.53 258.58 734.46 261.54 734.52 261.57"/><path class="cls-1" d="M277.21,302.8a2.75,2.75,0,0,1-.14.91,0,0,0,0,1,0,0,3.05,3.05,0,0,1-5.86-.14s0,0,0,0a2.76,2.76,0,0,1-.1-.77,2.41,2.41,0,0,1,0-.54,3.06,3.06,0,0,1,6.06.54Z"/><path class="cls-1" d="M277.14,216.37v85.5a2.26,2.26,0,0,1,0,.26c0,.54,0,1.07-.06,1.58a0,0,0,0,1,0,0,3.05,3.05,0,0,1-5.86-.14s0,0,0,0c0-.43-.05-.86-.05-1.31,0-.13,0-.26,0-.39v-85.5c0-.3,0-.6,0-.89,0-.55.06-1.08.12-1.6a3,3,0,0,1,5.71-.08,17.51,17.51,0,0,1,.13,1.82C277.14,215.87,277.14,216.12,277.14,216.37Z"/><path class="cls-1" d="M271.15,214.36a2.14,2.14,0,0,1,.13-.48c-.06.52-.11,1.05-.12,1.6a2.21,2.21,0,0,1-.06-.57A2.56,2.56,0,0,1,271.15,214.36Z"/><path class="cls-1" d="M277.21,214.91a2.76,2.76,0,0,1-.09.71,17.51,17.51,0,0,0-.13-1.82,2.25,2.25,0,0,1,.14.44A3,3,0,0,1,277.21,214.91Z"/><polygon class="cls-1" points="195.95 264.02 189.92 253.78 183.12 242.25 182.76 241.64 177.09 232 177.09 232 176.81 231.52 176.52 232.01 170.84 241.64 165.44 250.79 160.05 241.64 154.1 231.52 148.14 241.64 121.9 286.19 133.82 286.19 154.1 251.75 159.5 260.91 144.6 286.19 156.51 286.19 165.44 271.01 174.38 286.19 186.31 286.19 171.4 260.91 171.4 260.9 176.81 251.75 178.03 253.84 184.06 264.07 197.09 286.19 209 286.19 206.11 281.27 195.95 264.02"/><polygon class="cls-1" points="235.59 231.74 199.09 231.9 198.86 231.52 198.63 231.91 187.22 231.96 192.91 241.62 192.9 241.63 193.23 242.2 193.25 242.2 204.52 242.15 205.12 242.15 229.46 242.03 222.56 253.63 211.92 253.68 200.04 253.74 206.06 263.97 211.21 272.7 217.15 282.79 219.15 286.18 231.06 286.18 223.14 272.73 217.95 263.92 228.41 263.87 234.54 253.58 241.44 241.98 247.57 231.68 235.59 231.74"/></svg>