<svg width="256" height="256" viewBox="0 0 256 256" fill="none" xmlns="http://www.w3.org/2000/svg">
<path d="M42.6482 14.6812C50.8708 11.7478 59.7572 11.2087 68.2741 13.1264C76.7911 15.0442 84.5888 19.3401 90.7606 25.5146C96.9324 31.6892 101.225 39.4888 103.139 48.0066C105.053 56.5244 104.51 65.4105 101.572 73.6318L244.469 216.528L216.509 244.475L73.6124 101.592C65.3898 104.525 56.5034 105.064 47.9865 103.147C39.4695 101.229 31.6719 96.933 25.5001 90.7585C19.3283 84.5839 15.0359 76.7843 13.1219 68.2665C11.208 59.7487 11.7511 50.8626 14.6882 42.6413L44.1503 72.1166C45.9735 74.0043 48.1544 75.51 50.5657 76.5458C52.9771 77.5816 55.5705 78.1269 58.1948 78.1497C60.8192 78.1725 63.4217 77.6724 65.8507 76.6786C68.2797 75.6849 70.4864 74.2173 72.3421 72.3616C74.1979 70.5058 75.6654 68.2991 76.6592 65.8701C77.653 63.4411 78.1531 60.8386 78.1302 58.2143C78.1074 55.59 77.5622 52.9965 76.5264 50.5851C75.4906 48.1738 73.9849 45.9929 72.0972 44.1697L42.635 14.668L42.6482 14.6812ZM179.247 39.5053L221.173 16.2097L239.805 34.8409L216.509 76.7678L193.213 81.4322L165.28 109.379L146.635 90.7478L174.582 62.8009L179.247 39.5053V39.5053ZM86.0772 141.99L114.024 169.95L48.8015 235.173C45.2049 238.736 40.3781 240.783 35.3167 240.892C30.2552 241 25.3449 239.163 21.5985 235.758C17.8521 232.353 15.5551 227.64 15.1814 222.591C14.8076 217.542 16.3855 212.542 19.5897 208.623L20.8678 207.213L86.0903 141.99H86.0772Z" fill="#E01F4F"/>
</svg>
